ffmpeg version 6.1.1-3ubuntu5 Copyright (c) 2000-2023 the FFmpeg developers
  built with gcc 13 (Ubuntu 13.2.0-23ubuntu3)
  configuration: --prefix=/usr --extra-version=3ubuntu5 --toolchain=hardened --libdir=/usr/lib/x86_64-linux-gnu --incdir=/usr/include/x86_64-linux-gnu --arch=amd64 --enable-gpl --disable-stripping --disable-omx --enable-gnutls --enable-libaom --enable-libass --enable-libbs2b --enable-libcaca --enable-libcdio --enable-libcodec2 --enable-libdav1d --enable-libflite --enable-libfontconfig --enable-libfreetype --enable-libfribidi --enable-libglslang --enable-libgme --enable-libgsm --enable-libharfbuzz --enable-libmp3lame --enable-libmysofa --enable-libopenjpeg --enable-libopenmpt --enable-libopus --enable-librubberband --enable-libshine --enable-libsnappy --enable-libsoxr --enable-libspeex --enable-libtheora --enable-libtwolame --enable-libvidstab --enable-libvorbis --enable-libvpx --enable-libwebp --enable-libx265 --enable-libxml2 --enable-libxvid --enable-libzimg --enable-openal --enable-opencl --enable-opengl --disable-sndio --enable-libvpl --disable-libmfx --enable-libdc1394 --enable-libdrm --enable-libiec61883 --enable-chromaprint --enable-frei0r --enable-ladspa --enable-libbluray --enable-libjack --enable-libpulse --enable-librabbitmq --enable-librist --enable-libsrt --enable-libssh --enable-libsvtav1 --enable-libx264 --enable-libzmq --enable-libzvbi --enable-lv2 --enable-sdl2 --enable-libplacebo --enable-librav1e --enable-pocketsphinx --enable-librsvg --enable-libjxl --enable-shared
  libavutil      58. 29.100 / 58. 29.100
  libavcodec     60. 31.102 / 60. 31.102
  libavformat    60. 16.100 / 60. 16.100
  libavdevice    60.  3.100 / 60.  3.100
  libavfilter     9. 12.100 /  9. 12.100
  libswscale      7.  5.100 /  7.  5.100
  libswresample   4. 12.100 /  4. 12.100
  libpostproc    57.  3.100 / 57.  3.100
Splitting the commandline.
Reading option '-y' ... matched as option 'y' (overwrite output files) with argument '1'.
Reading option '-loglevel' ... matched as option 'loglevel' (set logging level) with argument 'debug'.
Reading option '-f' ... matched as option 'f' (force format) with argument 'rawvideo'.
Reading option '-pixel_format' ... matched as AVOption 'pixel_format' with argument 'bgr24'.
Reading option '-video_size' ... matched as AVOption 'video_size' with argument '640x480'.
Reading option '-r' ... matched as option 'r' (set frame rate (Hz value, fraction or abbreviation)) with argument '30'.
Reading option '-i' ... matched as output url with argument '-'.
Reading option '-c:v' ... matched as option 'c' (codec name) with argument 'libx264'.
Reading option '-pix_fmt' ... matched as option 'pix_fmt' (set pixel format) with argument 'yuv420p'.
Reading option './../video/output_35-47-11-09-08-2024.mp4' ... matched as output url.
Finished splitting the commandline.
Parsing a group of options: global .
Applying option y (overwrite output files) with argument 1.
Applying option loglevel (set logging level) with argument debug.
Successfully parsed a group of options.
Parsing a group of options: input url -.
Applying option f (force format) with argument rawvideo.
Applying option r (set frame rate (Hz value, fraction or abbreviation)) with argument 30.
Successfully parsed a group of options.
Opening an input file: -.
[rawvideo @ 0x63f0ac84b4c0] Opening 'fd:' for reading
[fd @ 0x63f0ac84bb40] Setting default whitelist 'crypto,data'
[rawvideo @ 0x63f0ac84b4c0] Before avformat_find_stream_info() pos: 0 bytes read:65536 seeks:0 nb_streams:1
[rawvideo @ 0x63f0ac84b4c0] All info found
[rawvideo @ 0x63f0ac84b4c0] After avformat_find_stream_info() pos: 921600 bytes read:921600 seeks:0 frames:1
Input #0, rawvideo, from 'fd:':
  Duration: N/A, start: 0.000000, bitrate: 221184 kb/s
  Stream #0:0, 1, 1/30: Video: rawvideo, 1 reference frame (BGR[24] / 0x18524742), bgr24, 640x480, 0/1, 221184 kb/s, 30 tbr, 30 tbn
Successfully opened the file.
Parsing a group of options: output url ./../video/output_35-47-11-09-08-2024.mp4.
Applying option c:v (codec name) with argument libx264.
Applying option pix_fmt (set pixel format) with argument yuv420p.
Successfully parsed a group of options.
Opening an output file: ./../video/output_35-47-11-09-08-2024.mp4.
[out#0/mp4 @ 0x63f0ac85d340] No explicit maps, mapping streams automatically...
[vost#0:0/libx264 @ 0x63f0ac85e640] Created video stream from input stream 0:0
[file @ 0x63f0ac861080] Setting default whitelist 'file,crypto,data'
Successfully opened the file.
Stream mapping:
  Stream #0:0 -> #0:0 (rawvideo (native) -> h264 (libx264))
[rawvideo @ 0x63f0ac85d780] PACKET SIZE: 921600, STRIDE: 1920
detected 2 logical cores
[graph 0 input from stream 0:0 @ 0x63f0ac862080] Setting 'video_size' to value '640x480'
[graph 0 input from stream 0:0 @ 0x63f0ac862080] Setting 'pix_fmt' to value '3'
[graph 0 input from stream 0:0 @ 0x63f0ac862080] Setting 'time_base' to value '1/30'
[graph 0 input from stream 0:0 @ 0x63f0ac862080] Setting 'pixel_aspect' to value '0/1'
[graph 0 input from stream 0:0 @ 0x63f0ac862080] Setting 'frame_rate' to value '30/1'
[graph 0 input from stream 0:0 @ 0x63f0ac862080] w:640 h:480 pixfmt:bgr24 tb:1/30 fr:30/1 sar:0/1
[format @ 0x63f0ac862600] Setting 'pix_fmts' to value 'yuv420p'
[auto_scale_0 @ 0x63f0ac863a00] w:iw h:ih flags:'' interl:0
[format @ 0x63f0ac862600] auto-inserting filter 'auto_scale_0' between the filter 'Parsed_null_0' and the filter 'format'
[AVFilterGraph @ 0x63f0ac85d140] query_formats: 4 queried, 2 merged, 1 already done, 0 delayed
[auto_scale_0 @ 0x63f0ac863a00] w:640 h:480 fmt:bgr24 sar:0/1 -> w:640 h:480 fmt:yuv420p sar:0/1 flags:0x00000004
[libx264 @ 0x63f0ac85ea00] using mv_range_thread = 72
[libx264 @ 0x63f0ac85ea00] using cpu capabilities: MMX2 SSE2Fast LZCNT SSSE3 SSE4.2
[libx264 @ 0x63f0ac85ea00] profile High, level 3.0, 4:2:0, 8-bit
[libx264 @ 0x63f0ac85ea00] 264 - core 164 r3108 31e19f9 - H.264/MPEG-4 AVC codec - Copyleft 2003-2023 - http://www.videolan.org/x264.html - options: cabac=1 ref=3 deblock=1:0:0 analyse=0x3:0x113 me=hex subme=7 psy=1 psy_rd=1.00:0.00 mixed_ref=1 me_range=16 chroma_me=1 trellis=1 8x8dct=1 cqm=0 deadzone=21,11 fast_pskip=1 chroma_qp_offset=-2 threads=3 lookahead_threads=1 sliced_threads=0 nr=0 decimate=1 interlaced=0 bluray_compat=0 constrained_intra=0 bframes=3 b_pyramid=2 b_adapt=1 b_bias=0 direct=1 weightb=1 open_gop=0 weightp=2 keyint=250 keyint_min=25 scenecut=40 intra_refresh=0 rc_lookahead=40 rc=crf mbtree=1 crf=23.0 qcomp=0.60 qpmin=0 qpmax=69 qpstep=4 ip_ratio=1.40 aq=1:1.00
Output #0, mp4, to './../video/output_35-47-11-09-08-2024.mp4':
  Metadata:
    encoder         : Lavf60.16.100
  Stream #0:0, 0, 1/15360: Video: h264, 1 reference frame (avc1 / 0x31637661), yuv420p(tv, progressive), 640x480 (0x0), 0/1, q=2-31, 30 fps, 15360 tbn
    Metadata:
      encoder         : Lavc60.31.102 libx264
    Side data:
      cpb: bitrate max/min/avg: 0/0/0 buffer size: 0 vbv_delay: N/A
frame=    0 fps=0.0 q=0.0 size=       0kB time=N/A bitrate=N/A speed=N/A    [in#0/rawvideo @ 0x63f0ac84b3c0] EOF while reading input
[in#0/rawvideo @ 0x63f0ac84b3c0] Terminating demuxer thread
[vist#0:0/rawvideo @ 0x63f0ac85d600] Decoder thread received EOF packet
[vist#0:0/rawvideo @ 0x63f0ac85d600] Decoder returned EOF, finishing
[vist#0:0/rawvideo @ 0x63f0ac85d600] Terminating decoder thread
[out_0_0 @ 0x63f0ac862480] EOF on sink link out_0_0:default.
frame=    0 fps=0.0 q=0.0 size=       0kB time=N/A bitrate=N/A speed=N/A    No more output streams to write to, finishing.
[libx264 @ 0x63f0ac85ea00] frame=   0 QP=26.62 NAL=3 Slice:I Poc:0   I:1200 P:0    SKIP:0    size=6200 bytes
[out#0/mp4 @ 0x63f0ac85d340] All streams finished
[out#0/mp4 @ 0x63f0ac85d340] Terminating muxer thread
[AVIOContext @ 0x63f0ac861140] Statistics: 7716 bytes written, 2 seeks, 4 writeouts
[out#0/mp4 @ 0x63f0ac85d340] Output file #0 (./../video/output_35-47-11-09-08-2024.mp4):
[out#0/mp4 @ 0x63f0ac85d340]   Output stream #0:0 (video): 1 frames encoded; 1 packets muxed (6889 bytes); 
[out#0/mp4 @ 0x63f0ac85d340]   Total: 1 packets (6889 bytes) muxed
[out#0/mp4 @ 0x63f0ac85d340] video:7kB audio:0kB subtitle:0kB other streams:0kB global headers:0kB muxing overhead: 11.946582%
frame=    1 fps=0.0 q=29.0 Lsize=       8kB time=00:00:00.00 bitrate=N/A speed=   0x    
[libx264 @ 0x63f0ac85ea00] frame I:1     Avg QP:26.62  size:  6200
[libx264 @ 0x63f0ac85ea00] mb I  I16..4: 29.7% 54.2% 16.2%
[libx264 @ 0x63f0ac85ea00] 8x8 transform intra:54.2%
[libx264 @ 0x63f0ac85ea00] coded y,uvDC,uvAC intra: 35.1% 18.2% 0.5%
[libx264 @ 0x63f0ac85ea00] i16 v,h,dc,p: 15% 11%  7% 67%
[libx264 @ 0x63f0ac85ea00] i8 v,h,dc,ddl,ddr,vr,hd,vl,hu: 17% 21% 24%  9%  5%  6%  5%  8%  5%
[libx264 @ 0x63f0ac85ea00] i4 v,h,dc,ddl,ddr,vr,hd,vl,hu: 29% 20% 18%  8%  5%  4%  3%  9%  3%
[libx264 @ 0x63f0ac85ea00] i8c dc,h,v,p: 78% 11% 11%  0%
[libx264 @ 0x63f0ac85ea00] kb/s:1488.00
[in#0/rawvideo @ 0x63f0ac84b3c0] Input file #0 (fd:):
[in#0/rawvideo @ 0x63f0ac84b3c0]   Input stream #0:0 (video): 1 packets read (921600 bytes); 1 frames decoded; 0 decode errors; 
[in#0/rawvideo @ 0x63f0ac84b3c0]   Total: 1 packets (921600 bytes) demuxed
[AVIOContext @ 0x63f0ac85bdc0] Statistics: 921600 bytes read, 0 seeks
